<mxfile host="app.diagrams.net" modified="2020-12-13T23:17:41.633Z" agent="5.0 (Windows NT 10.0; Win64; x64) AppleWebKit/537.36 (KHTML, like Gecko) Chrome/87.0.4280.88 Safari/537.36" etag="2uN5zRQNI3t3ciCTrRWI" version="14.0.1" type="github">
  <diagram id="C5RBs43oDa-KdzZeNtuy" name="Page-1">
    <mxGraphModel dx="1287" dy="752" grid="1" gridSize="10" guides="1" tooltips="1" connect="1" arrows="1" fold="1" page="1" pageScale="1" pageWidth="827" pageHeight="1169" math="0" shadow="0">
      <root>
        <mxCell id="WIyWlLk6GJQsqaUBKTNV-0" />
        <mxCell id="WIyWlLk6GJQsqaUBKTNV-1" parent="WIyWlLk6GJQsqaUBKTNV-0" />
        <mxCell id="bAbTVvDzwwmgNSvh9YL5-1" value="React 16.8" style="text;html=1;strokeColor=none;fillColor=none;align=left;verticalAlign=middle;whiteSpace=wrap;rounded=0;fontFamily=Verdana;" vertex="1" parent="WIyWlLk6GJQsqaUBKTNV-1">
          <mxGeometry x="40" y="40" width="160" height="40" as="geometry" />
        </mxCell>
        <mxCell id="bAbTVvDzwwmgNSvh9YL5-41" value="" style="edgeStyle=orthogonalEdgeStyle;rounded=0;orthogonalLoop=1;jettySize=auto;html=1;fontFamily=Verdana;exitX=-0.006;exitY=0.125;exitDx=0;exitDy=0;exitPerimeter=0;" edge="1" parent="WIyWlLk6GJQsqaUBKTNV-1" source="bAbTVvDzwwmgNSvh9YL5-23">
          <mxGeometry relative="1" as="geometry">
            <mxPoint x="80" y="240" as="targetPoint" />
          </mxGeometry>
        </mxCell>
        <mxCell id="bAbTVvDzwwmgNSvh9YL5-51" value="" style="edgeStyle=orthogonalEdgeStyle;rounded=0;orthogonalLoop=1;jettySize=auto;html=1;fontFamily=Verdana;fontSize=14;" edge="1" parent="WIyWlLk6GJQsqaUBKTNV-1" source="bAbTVvDzwwmgNSvh9YL5-22">
          <mxGeometry relative="1" as="geometry">
            <mxPoint x="320" y="240" as="targetPoint" />
          </mxGeometry>
        </mxCell>
        <mxCell id="bAbTVvDzwwmgNSvh9YL5-22" value="Context Provider" style="shape=table;html=1;whiteSpace=wrap;startSize=30;container=1;collapsible=0;childLayout=tableLayout;fontStyle=1;align=center;fontFamily=Verdana;strokeWidth=1;fillColor=#FFFFFF;fontSize=14;" vertex="1" parent="WIyWlLk6GJQsqaUBKTNV-1">
          <mxGeometry x="120" y="120" width="160" height="70" as="geometry" />
        </mxCell>
        <mxCell id="bAbTVvDzwwmgNSvh9YL5-23" value="" style="shape=partialRectangle;html=1;whiteSpace=wrap;collapsible=0;dropTarget=0;pointerEvents=0;fillColor=none;top=0;left=0;bottom=0;right=0;points=[[0,0.5],[1,0.5]];portConstraint=eastwest;" vertex="1" parent="bAbTVvDzwwmgNSvh9YL5-22">
          <mxGeometry y="30" width="160" height="40" as="geometry" />
        </mxCell>
        <mxCell id="bAbTVvDzwwmgNSvh9YL5-24" value="&lt;b&gt;&lt;font style=&quot;background-color: rgb(51 , 51 , 255) ; font-size: 14px&quot; face=&quot;Verdana&quot; color=&quot;#ffffff&quot;&gt;App&lt;/font&gt;&lt;/b&gt;" style="shape=partialRectangle;html=1;whiteSpace=wrap;connectable=0;top=0;left=0;bottom=0;right=0;overflow=hidden;strokeWidth=5;strokeColor=#FFFFFF;fillColor=#3333FF;perimeterSpacing=5;" vertex="1" parent="bAbTVvDzwwmgNSvh9YL5-23">
          <mxGeometry width="160" height="40" as="geometry" />
        </mxCell>
        <mxCell id="bAbTVvDzwwmgNSvh9YL5-42" value="&lt;b style=&quot;font-size: 14px;&quot;&gt;&lt;font style=&quot;font-size: 14px; background-color: rgb(51, 51, 255);&quot; face=&quot;Verdana&quot; color=&quot;#ffffff&quot;&gt;Component&lt;/font&gt;&lt;/b&gt;" style="shape=partialRectangle;html=1;whiteSpace=wrap;connectable=0;top=0;left=0;bottom=0;right=0;overflow=hidden;strokeWidth=5;strokeColor=#FFFFFF;fillColor=#3333FF;perimeterSpacing=5;fontSize=14;" vertex="1" parent="WIyWlLk6GJQsqaUBKTNV-1">
          <mxGeometry y="240" width="160" height="40" as="geometry" />
        </mxCell>
        <mxCell id="bAbTVvDzwwmgNSvh9YL5-52" value="&lt;b style=&quot;font-size: 14px;&quot;&gt;&lt;font style=&quot;font-size: 14px; background-color: rgb(51, 51, 255);&quot; face=&quot;Verdana&quot; color=&quot;#ffffff&quot;&gt;Component&lt;/font&gt;&lt;/b&gt;" style="shape=partialRectangle;html=1;whiteSpace=wrap;connectable=0;top=0;left=0;bottom=0;right=0;overflow=hidden;strokeWidth=5;strokeColor=#FFFFFF;fillColor=#3333FF;perimeterSpacing=5;fontSize=14;" vertex="1" parent="WIyWlLk6GJQsqaUBKTNV-1">
          <mxGeometry x="240" y="240" width="160" height="40" as="geometry" />
        </mxCell>
        <mxCell id="bAbTVvDzwwmgNSvh9YL5-53" value="useContext" style="text;html=1;align=center;verticalAlign=middle;resizable=0;points=[];autosize=1;fontSize=14;fontFamily=Verdana;" vertex="1" parent="WIyWlLk6GJQsqaUBKTNV-1">
          <mxGeometry x="155" y="320" width="90" height="20" as="geometry" />
        </mxCell>
        <mxCell id="bAbTVvDzwwmgNSvh9YL5-54" value="" style="endArrow=none;dashed=1;html=1;fontFamily=Verdana;fontSize=14;startArrow=classic;startFill=1;endFill=0;strokeWidth=1;curved=1;" edge="1" parent="WIyWlLk6GJQsqaUBKTNV-1">
          <mxGeometry width="50" height="50" relative="1" as="geometry">
            <mxPoint x="80" y="280" as="sourcePoint" />
            <mxPoint x="153" y="331" as="targetPoint" />
            <Array as="points">
              <mxPoint x="80" y="331" />
            </Array>
          </mxGeometry>
        </mxCell>
        <mxCell id="bAbTVvDzwwmgNSvh9YL5-55" value="" style="endArrow=none;dashed=1;html=1;fontFamily=Verdana;fontSize=14;entryX=1.022;entryY=0.65;entryDx=0;entryDy=0;entryPerimeter=0;startArrow=classic;startFill=1;endFill=0;strokeWidth=1;curved=1;" edge="1" parent="WIyWlLk6GJQsqaUBKTNV-1" target="bAbTVvDzwwmgNSvh9YL5-53">
          <mxGeometry width="50" height="50" relative="1" as="geometry">
            <mxPoint x="320" y="280" as="sourcePoint" />
            <mxPoint x="388.02" y="321" as="targetPoint" />
            <Array as="points">
              <mxPoint x="310" y="330" />
            </Array>
          </mxGeometry>
        </mxCell>
        <mxCell id="bAbTVvDzwwmgNSvh9YL5-56" value="" style="endArrow=none;dashed=1;html=1;dashPattern=1 3;strokeWidth=2;fontFamily=Verdana;fontSize=14;entryX=0.488;entryY=0.975;entryDx=0;entryDy=0;entryPerimeter=0;" edge="1" parent="WIyWlLk6GJQsqaUBKTNV-1" source="bAbTVvDzwwmgNSvh9YL5-53" target="bAbTVvDzwwmgNSvh9YL5-23">
          <mxGeometry width="50" height="50" relative="1" as="geometry">
            <mxPoint x="140" y="300" as="sourcePoint" />
            <mxPoint x="190" y="250" as="targetPoint" />
          </mxGeometry>
        </mxCell>
      </root>
    </mxGraphModel>
  </diagram>
</mxfile>
